<svg xmlns="http://www.w3.org/2000/svg" viewBox="0 0 24 24">
  <path d="M11 3L5 9L3 9C1.895 9 1 9.895 1 11L1 13C1 14.105 1.895 15 3 15L5 15L11 21L11 3 z M 19.484375 3.515625L18.070312 4.9296875C21.984175 8.8435492 21.984042 15.157495 18.070312 19.070312L19.484375 20.484375C24.162647 15.807192 24.162513 8.1937633 19.484375 3.515625 z M 16.65625 6.34375L15.242188 7.7578125C17.594098 10.109723 17.593888 13.891346 15.242188 16.242188L16.65625 17.65625C19.772549 14.541091 19.772339 9.4598394 16.65625 6.34375 z M 13.828125 9.171875L12.414062 10.585938C13.204152 11.376027 13.204152 12.623974 12.414062 13.414062L13.828125 14.830078C15.382035 13.276168 15.382035 10.725785 13.828125 9.171875 z" />
</svg>