<svg xmlns="http://www.w3.org/2000/svg" viewBox="0 0 30 30">
  <path d="M4 6 A 1 1 0 0 0 3 7 A 1 1 0 0 0 3 7.0039062L3 15L3 22.996094 A 1 1 0 0 0 3 23 A 1 1 0 0 0 4 24 A 1 1 0 0 0 4.5917969 23.804688L4.59375 23.804688 A 1 1 0 0 0 4.6210938 23.783203L15 16.236328L15 22.996094 A 1 1 0 0 0 15 23 A 1 1 0 0 0 16 24 A 1 1 0 0 0 16.591797 23.804688L16.59375 23.804688 A 1 1 0 0 0 16.621094 23.783203L27.541016 15.841797 A 1 1 0 0 0 28 15 A 1 1 0 0 0 27.556641 14.169922L16.59375 6.1953125 A 1 1 0 0 0 16 6 A 1 1 0 0 0 15 7 A 1 1 0 0 0 15 7.0039062L15 13.765625L4.59375 6.1953125 A 1 1 0 0 0 4 6 z" />
</svg>